<?xml version="1.0" encoding="UTF-8" standalone="no"?>
<svg width="17px" height="22px" viewBox="0 0 17 22" version="1.1" xmlns="http://www.w3.org/2000/svg" xmlns:xlink="http://www.w3.org/1999/xlink">
    <!-- Generator: Sketch 3.8.3 (29802) - http://www.bohemiancoding.com/sketch -->
    <title>Group</title>
    <desc>Created with Sketch.</desc>
    <defs>
        <path d="M8.29100379,0 C3.71183356,0 0,3.71235842 0,8.29179108 C0,12.8714862 3.71183356,16.5835822 8.29100379,16.5835822 C12.8704364,16.5835822 16.5835822,12.8714862 16.5835822,8.29179108 C16.5835822,3.71235842 12.8704364,0 8.29100379,0 L8.29100379,0 Z" id="path-1"></path>
        <mask id="mask-2" maskContentUnits="userSpaceOnUse" maskUnits="objectBoundingBox" x="0" y="0" width="16.795627" height="16.795627" fill="white">
            <use xlink:href="#path-1"></use>
        </mask>
    </defs>
    <g id="Page-1" stroke="none" stroke-width="1" fill="none" fill-rule="evenodd">
        <g id="Chris-Jimenez" transform="translate(-39.000000, -668.000000)" stroke="#222222" fill="#FFFFFF">
            <g id="Group" transform="translate(39.000000, 668.000000)">
                <g>
                    <polygon id="Rectangle-42-copy" stroke-linecap="round" stroke-linejoin="round" transform="translate(11.000000, 15.500000) scale(-1, 1) rotate(-340.000000) translate(-11.000000, -15.500000) " points="8 11 8 20 11 19.0275755 14 20 14 11"></polygon>
                    <polygon id="Rectangle-42-copy-2" stroke-linecap="round" stroke-linejoin="round" transform="translate(5.000000, 15.500000) rotate(-340.000000) translate(-5.000000, -15.500000) " points="2 11 2 20 5 19.0275755 8 20 8 11"></polygon>
                    <use id="Fill-1-copy-2" mask="url(#mask-2)" stroke-width="2" xlink:href="#path-1"></use>
                    <polygon id="Star-1" stroke-linecap="round" stroke-linejoin="round" points="8.29999916 10.25 6.24275102 11.3315596 6.63565036 9.04077981 4.97130141 7.4184406 7.27137538 7.08422002 8.29999928 5 9.32862381 7.08422054 11.6286976 7.41844226 9.96434798 9.04078024 10.3572474 11.3315596"></polygon>
                </g>
            </g>
        </g>
    </g>
</svg>