<?xml version="1.0" encoding="UTF-8" standalone="no"?>
<svg width="16px" height="22px" viewBox="0 0 16 22" version="1.1" xmlns="http://www.w3.org/2000/svg" xmlns:xlink="http://www.w3.org/1999/xlink">
    <!-- Generator: Sketch 3.8.3 (29802) - http://www.bohemiancoding.com/sketch -->
    <title>Group</title>
    <desc>Created with Sketch.</desc>
    <defs></defs>
    <g id="Page-1" stroke="none" stroke-width="1" fill="none" fill-rule="evenodd">
        <g id="Chris-Jimenez" transform="translate(-39.000000, -547.000000)">
            <g id="SKILLS-+-Group-+-Group" transform="translate(40.000000, 548.000000)">
                <g id="Group">
                    <g>
                        <polygon id="Fill-268" fill="#222222" points="6.002 20.5 8.002 20.5 8.002 19.5 6.002 19.5"></polygon>
                        <polygon id="Fill-269" fill="#222222" points="3.5 19.5 10.5 19.5 10.5 18.5 3.5 18.5"></polygon>
                        <polygon id="Fill-269-copy" fill="#222222" points="3.5 17.5 10.5 17.5 10.5 16.5 3.5 16.5"></polygon>
                        <path d="M14.0015,7 C14.0015,3.133 10.8675,0 7.0015,0 C3.1365,0 0.0015,3.133 0.0015,7 C0.0015,9.791 1.6395,12.191 4.0025,13.316 L4.0025,15 L10.0035,15 L10.0035,13.314 C12.3645,12.189 14.0015,9.791 14.0015,7" id="Fill-271" stroke="#222222"></path>
                        <path d="M7,8 L7,15" id="Shape" stroke="#222222"></path>
                        <path d="M5.49519857,8 L8.38385688,8" id="Shape-copy" stroke="#222222"></path>
                    </g>
                </g>
            </g>
        </g>
    </g>
</svg>