<?xml version="1.0" encoding="UTF-8" standalone="no"?>
<svg width="18px" height="18px" viewBox="0 0 18 18" version="1.1" xmlns="http://www.w3.org/2000/svg" xmlns:xlink="http://www.w3.org/1999/xlink">
    <!-- Generator: Sketch 3.8.3 (29802) - http://www.bohemiancoding.com/sketch -->
    <title>Group 2</title>
    <desc>Created with Sketch.</desc>
    <defs>
        <path d="M8.99915625,0.113625 C4.091625,0.113625 0.113625,4.0921875 0.113625,9 C0.113625,13.9080937 4.091625,17.886375 8.99915625,17.886375 C13.9069687,17.886375 17.886375,13.9080937 17.886375,9 C17.886375,4.0921875 13.9069687,0.113625 8.99915625,0.113625 L8.99915625,0.113625 Z" id="path-1"></path>
        <mask id="mask-2" maskContentUnits="userSpaceOnUse" maskUnits="objectBoundingBox" x="0" y="0" width="18" height="18" fill="white">
            <use xlink:href="#path-1"></use>
        </mask>
    </defs>
    <g id="Page-1" stroke="none" stroke-width="1" fill="none" fill-rule="evenodd">
        <g id="Chris-Jimenez" transform="translate(-37.000000, -759.000000)">
            <g id="Add" transform="translate(37.000000, 759.000000)">
                <g id="Group">
                    <g id="Group-2">
                        <use id="Fill-1-copy-2" stroke="#222222" mask="url(#mask-2)" stroke-width="2" xlink:href="#path-1"></use>
                        <path d="M8.59090909,8.59090909 L8.59090909,4.5 L9.40909091,4.5 L9.40909091,8.59090909 L13.5,8.59090909 L13.5,9.40909091 L9.40909091,9.40909091 L9.40909091,13.5 L8.59090909,13.5 L8.59090909,9.40909091 L4.5,9.40909091 L4.5,8.59090909 L8.59090909,8.59090909 Z" id="Rectangle-45-copy" fill="#222222"></path>
                    </g>
                </g>
            </g>
        </g>
    </g>
</svg>