<?xml version="1.0" encoding="UTF-8" standalone="no"?>
<svg width="18px" height="18px" viewBox="0 0 18 18" version="1.1" xmlns="http://www.w3.org/2000/svg" xmlns:xlink="http://www.w3.org/1999/xlink">
    <!-- Generator: Sketch 3.8.3 (29802) - http://www.bohemiancoding.com/sketch -->
    <title>Imported Layers</title>
    <desc>Created with Sketch.</desc>
    <defs></defs>
    <g id="Page-1" stroke="none" stroke-width="1" fill="none" fill-rule="evenodd">
        <g id="Chris-Jimenez" transform="translate(-38.000000, -164.000000)" fill="#222222">
            <g id="Group" transform="translate(38.000000, 164.000000)">
                <g id="Imported-Layers">
                    <path d="M8.99915625,0.113625 C4.091625,0.113625 0.113625,4.0921875 0.113625,9 C0.113625,13.9080938 4.091625,17.886375 8.99915625,17.886375 C13.9069687,17.886375 17.886375,13.9080938 17.886375,9 C17.886375,4.0921875 13.9069687,0.113625 8.99915625,0.113625 L8.99915625,0.113625 Z M8.99915625,16.4607188 C4.87996875,16.4607188 1.53928125,13.1203125 1.53928125,9 C1.53928125,4.8796875 4.87996875,1.53928125 8.99915625,1.53928125 C13.120875,1.53928125 16.4607187,4.8796875 16.4607187,9 C16.4607187,13.1203125 13.120875,16.4607188 8.99915625,16.4607188 L8.99915625,16.4607188 Z" id="Fill-1"></path>
                    <polyline id="Fill-2" points="9.1501875 2.980125 8.20659375 2.980125 7.8823125 9.0523125 7.96640625 9.68709375 12.5069063 13.7275312 13.2246563 12.9917812 9.4685625 8.96709375 9.1501875 2.980125"></polyline>
                </g>
            </g>
        </g>
    </g>
</svg>